<?xml version="1.0" encoding="utf-8"?>
<!-- Generator: Adobe Illustrator 22.0.1, SVG Export Plug-In . SVG Version: 6.00 Build 0)  -->
<svg version="1.1" id="Capa_1" xmlns="http://www.w3.org/2000/svg" xmlns:xlink="http://www.w3.org/1999/xlink" x="0px" y="0px"
	 viewBox="0 0 578.8 117.1" style="enable-background:new 0 0 578.8 117.1;" xml:space="preserve">
<style type="text/css">
	.st0{fill:#525EA7;stroke:#FFFFFF;stroke-width:1.7179;stroke-miterlimit:10;}
	.st1{fill:#F6A500;stroke:#FFFFFF;stroke-width:1.7179;stroke-miterlimit:10;}
	.st2{fill:#525EA7;stroke:#FFFFFF;stroke-width:1.7065;stroke-miterlimit:10;}
</style>
<g>
	<g>
		<path class="st0" d="M51.5,67.5c0-0.3,0-9.2,0-11.4c0-0.3,0.2-0.5,0.6-0.5c3.5-0.3,21.9-1.6,22.3-1.6c0.6-0.1,0.7,0.2,0.2,0.4
			c0,0-13.4,4.9-15.2,5.8c-1.8,1-2.3,1.6-3.4,2.9c0,0-2,2.4-3.9,4.6C51.6,68.3,51.5,67.8,51.5,67.5z"/>
		<path class="st0" d="M40,67.4c0-0.3,0-9.2,0-11.4c0-0.3-0.2-0.5-0.6-0.5c-3.5-0.3-21.9-1.6-22.3-1.6c-0.6-0.1-0.7,0.2-0.2,0.4
			c0,0,13.4,4.9,15.2,5.8c1.8,1,2.3,1.6,3.4,2.9c0,0,2,2.4,3.9,4.6C39.9,68.2,40,67.7,40,67.4z"/>
	</g>
	<path class="st0" d="M81.1,102.6V65.4c0,0,0-0.2-0.2-0.1c-1.2,0.8-11.2,7.8-11.4,8c-0.2,0.2-0.3,0.3-0.3,0.5c0,2.1,0,12.5,0,13.3
		c0,0.5-0.2,0.8-0.5,1c-0.6,0.3-11.1,5.8-11.1,5.8s-8-3.8-8.7-4.2c-0.5-0.2-0.4-0.4-0.4-0.9c0-0.5,0-4.5,0-4.8s-0.1-0.8,0.5-1.4
		c0.9-0.8,8-7.3,9.6-8.9c0.2-0.2,0.1-0.3-0.2-0.3H33c-0.3,0-0.3,0.2-0.2,0.3c1.6,1.6,8.7,8,9.6,8.9c0.7,0.5,0.5,1.1,0.5,1.4
		s0,4.3,0,4.8c0,0.5,0,0.7-0.4,0.9c-0.7,0.4-8.7,4.2-8.7,4.2s-10.5-5.5-11.1-5.8c-0.4-0.2-0.6-0.5-0.5-1c0-0.8,0-11.2,0-13.3
		c0-0.2-0.1-0.4-0.3-0.5c-0.3-0.2-10.2-7.1-11.4-8c-0.2-0.1-0.2,0.1-0.2,0.1v37.2H81.1z"/>
	<path class="st1" d="M75.3,47.6l15.3-36.1c0.1-0.3,0-0.6-0.2-0.8c-0.2-0.2-0.5-0.3-0.8-0.2c-3.6,1.3-9.3,6.8-11.5,13.3
		c-2.7-4.1-10.4-3-11,1.9c0,0.3,0.2,0.5,0.4,0.6c1.5,0.3,3.3,2,3.5,3.7c0.1,0.9-0.3,1.8-1,3c-0.2,0.4-0.5,0.9-1.5,0.9
		c-2.9,0-11,0-14.9,0c-1.5,0-2.7-1.1-2.7-3.5c-0.1-4.5,5.2-7.5,10.2-5.3c0.1,0,0.2,0,0.3,0c0.1-0.1,0.2-0.2,0.2-0.3
		c0.7-4.8-5-8.1-9.7-5.5c0.4-7.6-2.8-14.4-5.9-18.7h0l0,0l-0.8,0c-3,4.2-6.3,11.1-5.9,18.7c-4.7-2.6-10.4,0.7-9.7,5.5
		c0,0.1,0.1,0.2,0.2,0.3c0.1,0.1,0.2,0.1,0.3,0c5.1-2.2,10.3,0.8,10.2,5.3c0,2.4-1.2,3.5-2.7,3.5c-3.9,0-12,0-14.9,0
		c-1,0-1.3-0.5-1.5-0.9c-0.7-1.2-1.1-2.1-1-3c0.2-1.8,1.9-3.5,3.5-3.7c0.3,0,0.5-0.3,0.4-0.6c-0.5-4.9-8.3-6-11-1.9
		c-2.2-6.5-7.9-12.1-11.5-13.3c-0.3-0.1-0.6,0-0.8,0.2c-0.2,0.2-0.3,0.5-0.2,0.8l15.3,36.1H75.3z"/>
	<g>
		<g>
			<path class="st2" d="M404.7,28.4c-0.1,5.6-0.5,10.4-3.9,15.1C397,48.8,391.4,51,385,51c-12,0-20.4-8.2-20.4-20.2
				c0-12.4,8.4-20.6,20.8-20.6c7.9,0,14,3.6,17.3,10.7l-9.5,4c-1.4-3.7-4.3-6.1-8.3-6.1c-6.6,0-10,6.3-10,12.1c0,5.9,3.6,12,10.1,12
				c4.3,0,7.6-2.2,8-6.7h-8.1v-7.8H404.7z"/>
			<path class="st2" d="M438.1,38.3h-19.5c0,3.8,2,5.8,5.8,5.8c2,0,3.4-0.7,4.4-2.4h8.9c-1.5,6.1-7.3,8.9-13.3,8.9
				c-8.6,0-15.1-4.9-15.1-13.9c0-8.7,5.9-13.9,14.4-13.9c9,0,14.3,5.6,14.3,14.5V38.3z M429.6,32.9c-0.5-2.5-2.7-4.1-5.2-4.1
				c-2.7,0-4.9,1.4-5.5,4.1H429.6z"/>
			<path class="st2" d="M452.8,27.1h0.1c2.1-3.2,4.7-4.2,8.3-4.2c7,0,9.8,4.4,9.8,10.8v16.1h-9.2V37.1c0-2.5,0.4-6.9-4.2-6.9
				c-3.8,0-4.8,2.8-4.8,6v13.5h-9.2V23.7h9.2V27.1z"/>
			<path class="st2" d="M503.9,38.3h-19.5c0,3.8,2,5.8,5.8,5.8c2,0,3.4-0.7,4.4-2.4h8.9c-1.5,6.1-7.3,8.9-13.3,8.9
				c-8.6,0-15.1-4.9-15.1-13.9c0-8.7,5.9-13.9,14.4-13.9c9,0,14.3,5.6,14.3,14.5V38.3z M495.3,32.9c-0.5-2.5-2.7-4.1-5.2-4.1
				c-2.7,0-4.9,1.4-5.5,4.1H495.3z"/>
			<path class="st2" d="M518.5,28h0.1c1.8-3.2,4.8-4.6,8.4-4.6h1.8v8.9c-1.3-0.7-2.5-0.9-3.9-0.9c-5.1,0-6.4,3.4-6.4,7.9v10.5h-9.2
				V23.7h9.2V28z"/>
			<path class="st2" d="M563.1,49.8h-9.2v-2.9h-0.1c-1.6,2.6-4.8,3.8-7.9,3.8c-7.7,0-13.2-6.5-13.2-13.9s5.3-13.9,13.1-13.9
				c3,0,6.1,1.1,8.1,3.4v-2.5h9.2V49.8z M542.2,36.8c0,3.3,2.2,5.8,5.9,5.8c3.8,0,5.9-2.5,5.9-5.8c0-3.2-2.2-5.9-5.9-5.9
				C544.4,30.9,542.2,33.6,542.2,36.8z"/>
			<path class="st2" d="M577.9,49.8h-9.2V7.6h9.2V49.8z"/>
		</g>
		<g>
			<path class="st2" d="M114.9,49.8V11.5h14.2c6.8,0,11.4,2.6,11.4,10c0,3.5-1.1,6.3-4.2,7.8v0.1c5.5,0.7,7.8,4.4,7.8,9.8
				c0,8-6.9,10.7-13.9,10.7H114.9z M124.9,26.5h1.1c2.6,0,5.4-0.5,5.4-3.7c0-3.5-3.1-3.7-5.8-3.7h-0.7V26.5z M124.9,42.1h1.3
				c2.9,0,7.9,0.2,7.9-4.1c0-4.6-4.9-4.2-8.2-4.2h-1V42.1z"/>
			<path class="st2" d="M179.7,36.8c0,8.8-7.3,13.9-15.7,13.9c-8.3,0-15.7-5-15.7-13.9s7.3-13.9,15.7-13.9
				C172.4,22.8,179.7,27.9,179.7,36.8z M158.1,36.8c0,3.3,2.2,5.8,5.9,5.8c3.8,0,5.9-2.5,5.9-5.8c0-3.2-2.2-5.9-5.9-5.9
				C160.3,30.9,158.1,33.6,158.1,36.8z"/>
			<path class="st2" d="M194.1,23.7v13.9c0,3.3,0.8,5.6,4.6,5.6c3.8,0,4.6-2.3,4.6-5.6V23.7h9.2v15.7c0,8.6-6,11.2-13.9,11.2
				c-7.8,0-13.9-2.6-13.9-11.2V23.7H194.1z"/>
			<path class="st2" d="M229.8,49.8h-9.2V31.3h-3v-7.6h3v-7.8h9.2v7.8h5.2v7.6h-5.2V49.8z"/>
			<path class="st2" d="M248.9,13.7c0,2.8-2.3,5.2-5.2,5.2c-2.8,0-5.2-2.3-5.2-5.2c0-2.8,2.3-5.2,5.2-5.2
				C246.5,8.5,248.9,10.8,248.9,13.7z M248.3,49.8h-9.2V23.7h9.2V49.8z"/>
			<path class="st2" d="M283.3,62.8H274V47.3c-1.9,2.3-5.1,3.4-8.1,3.4c-7.8,0-13.1-6.3-13.1-13.8c0-7.4,5.4-14,13.2-14
				c3,0,6.3,1.2,7.9,3.8h0.1v-2.9h9.2V62.8z M262.4,36.8c0,3.3,2.2,5.8,5.9,5.8s5.9-2.5,5.9-5.8c0-3.2-2.2-5.9-5.9-5.9
				S262.4,33.6,262.4,36.8z"/>
			<path class="st2" d="M298.2,23.7v13.9c0,3.3,0.8,5.6,4.6,5.6c3.8,0,4.6-2.3,4.6-5.6V23.7h9.2v15.7c0,8.6-6,11.2-13.9,11.2
				c-7.8,0-13.9-2.6-13.9-11.2V23.7H298.2z"/>
			<path class="st2" d="M350.5,38.3H331c0,3.8,2,5.8,5.8,5.8c2,0,3.4-0.7,4.4-2.4h8.9c-1.5,6.1-7.3,8.9-13.3,8.9
				c-8.6,0-15.1-4.9-15.1-13.9c0-8.7,5.9-13.9,14.4-13.9c9,0,14.3,5.6,14.3,14.5V38.3z M341.9,32.9c-0.5-2.5-2.7-4.1-5.2-4.1
				c-2.7,0-4.9,1.4-5.5,4.1H341.9z"/>
		</g>
		<path class="st0" d="M127.5,96l-2.7,6.9h-10.9L129,63.3h11.2l14.9,39.5h-10.9l-2.6-6.9H127.5z M134.6,75.5h-0.1l-4.2,12.6h8.5
			L134.6,75.5z"/>
		<path class="st0" d="M169.6,76v14.4c0,3.4,0.8,5.8,4.8,5.8c3.9,0,4.8-2.4,4.8-5.8V76h9.5v16.2c0,8.9-6.2,11.6-14.3,11.6
			c-8.1,0-14.3-2.7-14.3-11.6V76H169.6z"/>
		<path class="st0" d="M209.6,102.8H200v-19h-3.1V76h3.1v-8.1h9.5V76h5.4v7.9h-5.4V102.8z"/>
		<path class="st0" d="M250.5,89.4c0,9.1-7.5,14.3-16.2,14.3c-8.6,0-16.2-5.1-16.2-14.3s7.5-14.4,16.2-14.4
			C242.9,75.1,250.5,80.2,250.5,89.4z M228.2,89.4c0,3.4,2.3,6,6.1,6c3.9,0,6.1-2.6,6.1-6c0-3.3-2.3-6.1-6.1-6.1
			C230.4,83.3,228.2,86.1,228.2,89.4z"/>
		<path class="st0" d="M266.5,79h0.1c1.7-2.7,5-3.9,8.1-3.9c8,0,13.6,6.7,13.6,14.4c0,7.8-5.5,14.2-13.5,14.2
			c-3.1,0-6.3-1.1-8.3-3.5v16h-9.5V76h9.5V79z M266.1,89.4c0,3.4,2.3,6,6.1,6c3.9,0,6.1-2.6,6.1-6c0-3.3-2.3-6.1-6.1-6.1
			C268.4,83.3,266.1,86.1,266.1,89.4z"/>
		<path class="st0" d="M324.4,102.8h-9.5v-3h-0.1c-1.7,2.7-5,3.9-8.1,3.9c-8,0-13.6-6.7-13.6-14.4s5.5-14.3,13.5-14.3
			c3.1,0,6.3,1.2,8.3,3.5V76h9.5V102.8z M302.9,89.4c0,3.4,2.3,6,6.1,6c3.9,0,6.1-2.6,6.1-6c0-3.3-2.3-6.1-6.1-6.1
			C305.2,83.3,302.9,86.1,302.9,89.4z"/>
		<path class="st0" d="M342.4,80.4h0.1c1.8-3.3,5-4.8,8.7-4.8h1.8v9.2c-1.3-0.7-2.6-0.9-4-0.9c-5.3,0-6.6,3.5-6.6,8.1v10.8h-9.5V76
			h9.5V80.4z"/>
		<path class="st0" d="M371.6,102.8h-9.5v-19H359V76h3.1v-8.1h9.5V76h5.4v7.9h-5.4V102.8z"/>
		<path class="st0" d="M410.5,91h-20.1c0,3.9,2,6,6,6c2,0,3.5-0.7,4.6-2.5h9.2c-1.5,6.3-7.5,9.2-13.7,9.2c-8.9,0-15.6-5-15.6-14.3
			c0-9,6.1-14.4,14.9-14.4c9.3,0,14.7,5.8,14.7,14.9V91z M401.6,85.5c-0.5-2.6-2.8-4.2-5.4-4.2c-2.8,0-5.1,1.5-5.7,4.2H401.6z"/>
		<path class="st0" d="M434.3,82.9c-1.5-0.8-3.5-1.3-5.1-1.3c-1.1,0-3,0.5-3,1.8c0,1.8,3,2.1,4.3,2.4c4.5,0.9,7.8,3,7.8,8
			c0,7.1-6.4,10-12.7,10c-3.8,0-7.6-1.1-10.8-3.1l3.5-6.7c1.9,1.4,5.2,2.7,7.5,2.7c1.2,0,3-0.6,3-2c0-2.1-3-2.2-6-3
			c-3-0.8-6-2.3-6-7.1c0-6.6,6-9.5,11.8-9.5c3,0,6.1,0.5,8.9,1.7L434.3,82.9z"/>
		<path class="st0" d="M477.7,82.3c-1.3-1.1-3-1.8-4.8-1.8c-1.3,0-3.1,0.8-3.1,2.3c0,1.6,1.9,2.2,3.2,2.6l1.8,0.6
			c3.8,1.1,6.8,3.1,6.8,7.6c0,2.8-0.7,5.6-2.9,7.4c-2.2,1.8-5.1,2.6-7.8,2.6c-3.5,0-6.9-1.2-9.7-3.2l3.1-5.8
			c1.8,1.6,3.9,2.9,6.4,2.9c1.7,0,3.5-0.8,3.5-2.8c0-2-2.8-2.7-4.4-3.2c-4.5-1.3-7.5-2.5-7.5-7.8c0-5.6,4-9.3,9.5-9.3
			c2.8,0,6.2,0.9,8.7,2.3L477.7,82.3z"/>
		<path class="st0" d="M495.5,99.7c0,2.3-1.9,4.2-4.2,4.2c-2.3,0-4.2-1.9-4.2-4.2c0-2.3,1.9-4.2,4.2-4.2
			C493.6,95.5,495.5,97.3,495.5,99.7z"/>
		<path class="st0" d="M539.9,99.7c0,2.3-1.9,4.2-4.2,4.2c-2.3,0-4.2-1.9-4.2-4.2c0-2.3,1.9-4.2,4.2-4.2
			C538,95.5,539.9,97.3,539.9,99.7z"/>
		<path class="st0" d="M577.2,99.7c0,2.3-1.9,4.2-4.2,4.2s-4.2-1.9-4.2-4.2c0-2.3,1.9-4.2,4.2-4.2S577.2,97.3,577.2,99.7z"/>
		<path class="st0" d="M525.3,102.8h-8.9l-6.8-10.6h-0.1v10.6h-7.2V75.2H513c5.5,0,9.6,2.6,9.6,8.5c0,3.8-2.1,7.1-6,7.8L525.3,102.8
			z M509.5,87.6h0.7c2.3,0,5-0.4,5-3.4s-2.6-3.4-5-3.4h-0.7V87.6z"/>
		<path class="st0" d="M553.9,96.7h8.6v6.1h-15.8V75.2h7.2V96.7z"/>
	</g>
</g>
</svg>
