<?xml version="1.0" encoding="utf-8"?>
<!-- Generator: Adobe Illustrator 22.0.1, SVG Export Plug-In . SVG Version: 6.00 Build 0)  -->
<svg version="1.1" id="Capa_1" xmlns="http://www.w3.org/2000/svg" xmlns:xlink="http://www.w3.org/1999/xlink" x="0px" y="0px"
	 viewBox="0 0 71.6 85.8" style="enable-background:new 0 0 71.6 85.8;" xml:space="preserve">
<style type="text/css">
	.st0{fill:#525EA7;}
	.st1{fill:#F6A500;}
</style>
<g>
	<path class="st0" d="M40.5,55.2c0-0.2,0-7.5,0-9.2c0-0.2,0.2-0.4,0.5-0.4c2.9-0.2,17.9-1.3,18.2-1.3c0.5-0.1,0.5,0.2,0.2,0.3
		c0,0-10.9,4-12.4,4.7c-1.5,0.8-1.9,1.3-2.8,2.4c0,0-1.6,1.9-3.1,3.7C40.6,55.9,40.5,55.5,40.5,55.2z"/>
	<path class="st0" d="M31.2,55.1c0-0.2,0-7.5,0-9.2c0-0.2-0.2-0.4-0.5-0.4c-2.9-0.2-17.9-1.3-18.2-1.3c-0.5-0.1-0.5,0.2-0.2,0.3
		c0,0,10.9,4,12.4,4.7c1.5,0.8,1.9,1.3,2.8,2.4c0,0,1.6,1.9,3.1,3.7C31.1,55.8,31.2,55.4,31.2,55.1z"/>
</g>
<path class="st0" d="M64.6,85.8V55.5c0,0,0-0.2-0.2,0c-1,0.7-9.1,6.3-9.3,6.5c-0.2,0.1-0.2,0.2-0.2,0.4c0,1.7,0,10.1,0,10.8
	c0,0.4-0.1,0.7-0.4,0.8c-0.5,0.3-9,4.7-9,4.7s-6.5-3.1-7.1-3.4C38,75.1,38,75,38,74.6c0-0.4,0-3.7,0-3.9s-0.1-0.7,0.4-1.1
	c0.8-0.7,6.5-6,7.8-7.2c0.1-0.1,0.1-0.3-0.1-0.3H25.5c-0.2,0-0.3,0.1-0.1,0.3c1.3,1.3,7.1,6.5,7.8,7.2c0.6,0.4,0.4,0.9,0.4,1.1
	s0,3.5,0,3.9c0,0.4,0,0.6-0.4,0.7c-0.6,0.3-7.1,3.4-7.1,3.4s-8.5-4.5-9-4.7c-0.3-0.2-0.5-0.4-0.4-0.8c0-0.7,0-9.1,0-10.8
	c0-0.2,0-0.3-0.2-0.4c-0.2-0.2-8.3-5.8-9.3-6.5c-0.2-0.1-0.2,0-0.2,0v30.3H64.6z"/>
<path class="st1" d="M59.4,37.3L71.6,8.5c0.1-0.2,0-0.4-0.1-0.6c-0.2-0.2-0.4-0.2-0.6-0.1c-2.9,1-7.4,5.5-9.2,10.6
	c-2.1-3.2-8.3-2.4-8.7,1.5c0,0.2,0.1,0.4,0.3,0.4c1.2,0.2,2.6,1.6,2.8,3c0.1,0.7-0.2,1.5-0.8,2.4c-0.2,0.3-0.4,0.7-1.2,0.7
	c-2.3,0-8.8,0-11.9,0c-1.2,0-2.2-0.9-2.2-2.8c0-3.6,4.1-6,8.2-4.2c0.1,0,0.2,0,0.3,0c0.1,0,0.1-0.1,0.1-0.2c0.5-3.8-4-6.4-7.8-4.4
	c0.3-6-2.3-11.5-4.7-14.9h0l0,0l-0.7,0c-2.4,3.4-5,8.9-4.7,14.9c-3.8-2-8.3,0.6-7.8,4.4c0,0.1,0.1,0.2,0.1,0.2c0.1,0,0.2,0,0.3,0
	c4-1.8,8.2,0.6,8.2,4.2c0,1.9-1,2.8-2.2,2.8c-3.1,0-9.6,0-11.9,0c-0.8,0-1-0.4-1.2-0.7c-0.5-1-0.8-1.7-0.8-2.4
	c0.2-1.4,1.5-2.8,2.8-3c0.2,0,0.4-0.2,0.3-0.4c-0.4-3.9-6.6-4.8-8.7-1.5C8.2,13.2,3.6,8.8,0.8,7.8c-0.2-0.1-0.4,0-0.6,0.1
	C0,8.1,0,8.3,0,8.5l12.2,28.8H59.4z"/>
</svg>
