<?xml version="1.0" encoding="utf-8"?>
<!-- Generator: Adobe Illustrator 22.0.1, SVG Export Plug-In . SVG Version: 6.00 Build 0)  -->
<svg version="1.1" id="Capa_1" xmlns="http://www.w3.org/2000/svg" xmlns:xlink="http://www.w3.org/1999/xlink" x="0px" y="0px"
	 viewBox="0 0 500.7 97.7" style="enable-background:new 0 0 500.7 97.7;" xml:space="preserve">
<style type="text/css">
	.st0{fill:#525EA7;}
	.st1{fill:#F6A500;}
</style>
<g>
	<path class="st0" d="M40.5,55.2c0-0.2,0-7.5,0-9.2c0-0.2,0.2-0.4,0.5-0.4c2.9-0.2,17.9-1.3,18.2-1.3c0.5-0.1,0.5,0.2,0.2,0.3
		c0,0-10.9,4-12.4,4.7c-1.5,0.8-1.9,1.3-2.8,2.4c0,0-1.6,1.9-3.1,3.7C40.6,55.9,40.5,55.5,40.5,55.2z"/>
	<path class="st0" d="M31.2,55.1c0-0.2,0-7.5,0-9.2c0-0.2-0.2-0.4-0.5-0.4c-2.9-0.2-17.9-1.3-18.2-1.3c-0.5-0.1-0.5,0.2-0.2,0.3
		c0,0,10.9,4,12.4,4.7c1.5,0.8,1.9,1.3,2.8,2.4c0,0,1.6,1.9,3.1,3.7C31.1,55.8,31.2,55.4,31.2,55.1z"/>
</g>
<path class="st0" d="M64.6,85.8V55.5c0,0,0-0.2-0.2,0c-1,0.7-9.1,6.3-9.3,6.5c-0.2,0.1-0.2,0.2-0.2,0.4c0,1.7,0,10.1,0,10.8
	c0,0.4-0.1,0.7-0.4,0.8c-0.5,0.3-9,4.7-9,4.7s-6.5-3.1-7.1-3.4C38,75.1,38,75,38,74.6c0-0.4,0-3.7,0-3.9s-0.1-0.7,0.4-1.1
	c0.8-0.7,6.5-6,7.8-7.2c0.1-0.1,0.1-0.3-0.1-0.3H25.5c-0.2,0-0.3,0.1-0.1,0.3c1.3,1.3,7.1,6.5,7.8,7.2c0.6,0.4,0.4,0.9,0.4,1.1
	s0,3.5,0,3.9c0,0.4,0,0.6-0.4,0.7c-0.6,0.3-7.1,3.4-7.1,3.4s-8.5-4.5-9-4.7c-0.3-0.2-0.5-0.4-0.4-0.8c0-0.7,0-9.1,0-10.8
	c0-0.2,0-0.3-0.2-0.4c-0.2-0.2-8.3-5.8-9.3-6.5c-0.2-0.1-0.2,0-0.2,0v30.3H64.6z"/>
<path class="st1" d="M59.4,37.3L71.6,8.5c0.1-0.2,0-0.4-0.1-0.6c-0.2-0.2-0.4-0.2-0.6-0.1c-2.9,1-7.4,5.5-9.2,10.6
	c-2.1-3.2-8.3-2.4-8.7,1.5c0,0.2,0.1,0.4,0.3,0.4c1.2,0.2,2.6,1.6,2.8,3c0.1,0.7-0.2,1.5-0.8,2.4c-0.2,0.3-0.4,0.7-1.2,0.7
	c-2.3,0-8.8,0-11.9,0c-1.2,0-2.2-0.9-2.2-2.8c0-3.6,4.1-6,8.2-4.2c0.1,0,0.2,0,0.3,0c0.1,0,0.1-0.1,0.1-0.2c0.5-3.8-4-6.4-7.8-4.4
	c0.3-6-2.3-11.5-4.7-14.9h0l0,0l-0.7,0c-2.4,3.4-5,8.9-4.7,14.9c-3.8-2-8.3,0.6-7.8,4.4c0,0.1,0.1,0.2,0.1,0.2c0.1,0,0.2,0,0.3,0
	c4-1.8,8.2,0.6,8.2,4.2c0,1.9-1,2.8-2.2,2.8c-3.1,0-9.6,0-11.9,0c-0.8,0-1-0.4-1.2-0.7c-0.5-1-0.8-1.7-0.8-2.4
	c0.2-1.4,1.5-2.8,2.8-3c0.2,0,0.4-0.2,0.3-0.4c-0.4-3.9-6.6-4.8-8.7-1.5C8.2,13.2,3.6,8.8,0.8,7.8c-0.2-0.1-0.4,0-0.6,0.1
	C0,8.1,0,8.3,0,8.5l12.2,28.8H59.4z"/>
<g>
	<g>
		<path class="st0" d="M100,38.6V4.8h12.5c6,0,10,2.3,10,8.8c0,3-1,5.5-3.7,6.9v0.1c4.8,0.6,6.9,3.9,6.9,8.6c0,7.1-6,9.4-12.2,9.4
			H100z M108.8,18h1c2.3,0,4.7-0.4,4.7-3.3c0-3.1-2.7-3.3-5.1-3.3h-0.6V18z M108.8,31.8h1.1c2.6,0,7,0.1,7-3.6
			c0-4.1-4.3-3.7-7.2-3.7h-0.9V31.8z"/>
		<path class="st0" d="M156.1,27.1c0,7.8-6.5,12.2-13.8,12.2c-7.3,0-13.8-4.4-13.8-12.2s6.5-12.3,13.8-12.3
			C149.7,14.8,156.1,19.2,156.1,27.1z M137,27.1c0,2.9,1.9,5.2,5.2,5.2c3.3,0,5.2-2.2,5.2-5.2c0-2.8-1.9-5.2-5.2-5.2
			C139,21.9,137,24.3,137,27.1z"/>
		<path class="st0" d="M167.8,15.6v12.3c0,2.9,0.7,5,4.1,5c3.4,0,4.1-2.1,4.1-5V15.6h8.2v13.8c0,7.6-5.3,9.9-12.2,9.9
			c-6.9,0-12.2-2.3-12.2-9.9V15.6H167.8z"/>
		<path class="st0" d="M198.2,38.6h-8.2V22.3h-2.6v-6.7h2.6V8.7h8.2v6.9h4.6v6.7h-4.6V38.6z"/>
		<path class="st0" d="M214.1,6.7c0,2.5-2.1,4.6-4.6,4.6c-2.5,0-4.6-2.1-4.6-4.6c0-2.5,2.1-4.6,4.6-4.6C212,2.2,214.1,4.2,214.1,6.7
			z M213.6,38.6h-8.2v-23h8.2V38.6z"/>
		<path class="st0" d="M244.4,50h-8.2V36.4c-1.7,2-4.5,3-7.1,3c-6.9,0-11.5-5.6-11.5-12.2c0-6.5,4.8-12.3,11.6-12.3
			c2.7,0,5.5,1.1,6.9,3.4h0.1v-2.6h8.2V50z M226,27.1c0,2.9,1.9,5.2,5.2,5.2s5.2-2.2,5.2-5.2c0-2.8-1.9-5.2-5.2-5.2
			S226,24.3,226,27.1z"/>
		<path class="st0" d="M257.5,15.6v12.3c0,2.9,0.7,5,4.1,5c3.4,0,4.1-2.1,4.1-5V15.6h8.2v13.8c0,7.6-5.3,9.9-12.2,9.9
			c-6.9,0-12.2-2.3-12.2-9.9V15.6H257.5z"/>
		<path class="st0" d="M302.6,28.4h-17.2c0,3.3,1.7,5.1,5.1,5.1c1.7,0,3-0.6,3.9-2.1h7.8c-1.3,5.4-6.5,7.9-11.7,7.9
			c-7.6,0-13.3-4.3-13.3-12.2c0-7.7,5.2-12.3,12.7-12.3c8,0,12.6,4.9,12.6,12.8V28.4z M295.1,23.7c-0.4-2.2-2.4-3.6-4.6-3.6
			c-2.4,0-4.3,1.3-4.8,3.6H295.1z"/>
	</g>
	<g>
		<path class="st0" d="M353.6,19.7c-0.1,4.9-0.4,9.1-3.4,13.3c-3.3,4.6-8.3,6.6-13.9,6.6c-10.6,0-18-7.2-18-17.8
			c0-11,7.4-18.2,18.3-18.2c6.9,0,12.3,3.1,15.2,9.5l-8.3,3.5c-1.2-3.2-3.8-5.4-7.3-5.4c-5.8,0-8.8,5.5-8.8,10.7
			c0,5.2,3.1,10.6,8.9,10.6c3.8,0,6.7-2,7.1-5.9h-7.2v-6.9H353.6z"/>
		<path class="st0" d="M381,28.4h-17.2c0,3.3,1.7,5.1,5.1,5.1c1.7,0,3-0.6,3.9-2.1h7.8c-1.3,5.4-6.5,7.9-11.7,7.9
			c-7.6,0-13.3-4.3-13.3-12.2c0-7.7,5.2-12.3,12.7-12.3c8,0,12.6,4.9,12.6,12.8V28.4z M373.5,23.7c-0.4-2.2-2.4-3.6-4.6-3.6
			c-2.4,0-4.3,1.3-4.8,3.6H373.5z"/>
		<path class="st0" d="M392.9,18.5L392.9,18.5c2-2.8,4.3-3.7,7.4-3.7c6.2,0,8.6,3.9,8.6,9.5v14.2h-8.2V27.4c0-2.2,0.4-6-3.7-6
			c-3.3,0-4.3,2.5-4.3,5.3v11.9h-8.2v-23h8.2V18.5z"/>
		<path class="st0" d="M438,28.4h-17.2c0,3.3,1.7,5.1,5.1,5.1c1.7,0,3-0.6,3.9-2.1h7.8c-1.3,5.4-6.5,7.9-11.7,7.9
			c-7.6,0-13.3-4.3-13.3-12.2c0-7.7,5.2-12.3,12.7-12.3c8,0,12.6,4.9,12.6,12.8V28.4z M430.4,23.7c-0.4-2.2-2.4-3.6-4.6-3.6
			c-2.4,0-4.3,1.3-4.8,3.6H430.4z"/>
		<path class="st0" d="M449.8,19.3L449.8,19.3c1.7-2.8,4.3-4.1,7.5-4.1h1.6v7.8c-1.1-0.6-2.2-0.8-3.4-0.8c-4.5,0-5.6,3-5.6,6.9v9.3
			h-8.2v-23h8.2V19.3z"/>
		<path class="st0" d="M487.1,38.6h-8.2V36h-0.1c-1.4,2.3-4.3,3.3-6.9,3.3c-6.8,0-11.6-5.7-11.6-12.3s4.7-12.2,11.5-12.2
			c2.6,0,5.4,1,7.1,3v-2.2h8.2V38.6z M468.7,27.1c0,2.9,1.9,5.2,5.2,5.2c3.3,0,5.2-2.2,5.2-5.2c0-2.8-1.9-5.2-5.2-5.2
			C470.6,21.9,468.7,24.3,468.7,27.1z"/>
		<path class="st0" d="M500.7,38.6h-8.2V1.4h8.2V38.6z"/>
	</g>
	<path class="st0" d="M107.1,80.2l-2.4,5.9h-9.4l13.2-34.2h9.7L131,86.1h-9.5l-2.2-5.9H107.1z M113.3,62.5L113.3,62.5l-3.8,10.9h7.4
		L113.3,62.5z"/>
	<path class="st0" d="M143.5,62.8v12.4c0,2.9,0.7,5,4.1,5c3.4,0,4.1-2.1,4.1-5V62.8h8.3v14c0,7.7-5.4,10-12.4,10
		c-7,0-12.4-2.4-12.4-10v-14H143.5z"/>
	<path class="st0" d="M178.1,86.1h-8.3V69.6h-2.7v-6.8h2.7v-7h8.3v7h4.7v6.8h-4.7V86.1z"/>
	<path class="st0" d="M213.5,74.5c0,7.9-6.5,12.4-14,12.4c-7.4,0-14-4.4-14-12.4s6.5-12.4,14-12.4C207,62.1,213.5,66.5,213.5,74.5z
		 M194.2,74.5c0,2.9,2,5.2,5.3,5.2c3.4,0,5.3-2.3,5.3-5.2c0-2.9-2-5.3-5.3-5.3C196.2,69.2,194.2,71.6,194.2,74.5z"/>
	<path class="st0" d="M227.4,65.5L227.4,65.5c1.6-2.3,4.4-3.4,7.1-3.4c6.9,0,11.7,5.8,11.7,12.5c0,6.7-4.8,12.3-11.7,12.3
		c-2.7,0-5.4-1-7.2-3v13.8h-8.3V62.8h8.3V65.5z M227.1,74.5c0,2.9,2,5.2,5.3,5.2c3.4,0,5.3-2.3,5.3-5.2c0-2.9-2-5.3-5.3-5.3
		C229.1,69.2,227.1,71.6,227.1,74.5z"/>
	<path class="st0" d="M277.5,86.1h-8.3v-2.6h-0.1c-1.5,2.3-4.3,3.4-7,3.4c-6.9,0-11.7-5.8-11.7-12.4c0-6.7,4.8-12.4,11.7-12.4
		c2.7,0,5.5,1,7.2,3v-2.3h8.3V86.1z M258.9,74.5c0,2.9,2,5.2,5.3,5.2c3.4,0,5.3-2.3,5.3-5.2c0-2.9-2-5.3-5.3-5.3
		C260.9,69.2,258.9,71.6,258.9,74.5z"/>
	<path class="st0" d="M293.1,66.6L293.1,66.6c1.7-2.9,4.4-4.1,7.6-4.1h1.6v7.9c-1.1-0.6-2.2-0.8-3.5-0.8c-4.6,0-5.7,3-5.7,7v9.4
		h-8.3V62.8h8.3V66.6z"/>
	<path class="st0" d="M318.4,86.1h-8.3V69.6h-2.7v-6.8h2.7v-7h8.3v7h4.7v6.8h-4.7V86.1z"/>
	<path class="st0" d="M352.1,75.8h-17.4c0,3.4,1.8,5.2,5.2,5.2c1.8,0,3-0.6,3.9-2.1h7.9c-1.3,5.5-6.5,8-11.8,8
		c-7.7,0-13.5-4.4-13.5-12.4c0-7.8,5.3-12.4,12.9-12.4c8.1,0,12.7,5,12.7,12.9V75.8z M344.4,71.1c-0.4-2.2-2.4-3.7-4.7-3.7
		c-2.4,0-4.4,1.3-4.9,3.7H344.4z"/>
	<path class="st0" d="M372.7,68.8c-1.3-0.7-3-1.1-4.4-1.1c-1,0-2.6,0.4-2.6,1.6c0,1.6,2.6,1.8,3.7,2c3.9,0.8,6.8,2.6,6.8,6.9
		c0,6.1-5.6,8.7-11,8.7c-3.3,0-6.6-1-9.4-2.7l3-5.8c1.7,1.2,4.5,2.4,6.5,2.4c1,0,2.6-0.5,2.6-1.8c0-1.8-2.6-1.9-5.2-2.6
		c-2.6-0.7-5.2-1.9-5.2-6.1c0-5.7,5.2-8.3,10.2-8.3c2.6,0,5.3,0.4,7.7,1.5L372.7,68.8z"/>
	<path class="st0" d="M410.2,68.3c-1.1-1-2.6-1.6-4.1-1.6c-1.1,0-2.7,0.7-2.7,2c0,1.4,1.7,1.9,2.8,2.3l1.6,0.5
		c3.3,1,5.9,2.7,5.9,6.5c0,2.4-0.6,4.8-2.5,6.4c-1.9,1.6-4.4,2.3-6.8,2.3c-3,0-6-1-8.4-2.7l2.7-5c1.6,1.4,3.4,2.5,5.5,2.5
		c1.5,0,3-0.7,3-2.4c0-1.7-2.4-2.3-3.8-2.7c-3.9-1.1-6.5-2.1-6.5-6.8c0-4.9,3.5-8,8.3-8c2.4,0,5.4,0.8,7.5,2L410.2,68.3z"/>
	<path class="st0" d="M425.7,83.4c0,2-1.6,3.6-3.6,3.6c-2,0-3.6-1.7-3.6-3.6c0-2,1.6-3.6,3.6-3.6C424,79.7,425.7,81.3,425.7,83.4z"
		/>
	<path class="st0" d="M466.7,83.4c0,2-1.6,3.6-3.6,3.6c-2,0-3.6-1.7-3.6-3.6c0-2,1.6-3.6,3.6-3.6C465.1,79.7,466.7,81.3,466.7,83.4z
		"/>
	<path class="st0" d="M500.7,83.4c0,2-1.6,3.6-3.6,3.6c-2,0-3.6-1.7-3.6-3.6c0-2,1.6-3.6,3.6-3.6C499.1,79.7,500.7,81.3,500.7,83.4z
		"/>
	<path class="st0" d="M453.2,86.1h-7.7l-5.9-9.2h-0.1v9.2h-6.2V62.2h9.3c4.7,0,8.3,2.3,8.3,7.4c0,3.3-1.8,6.2-5.2,6.8L453.2,86.1z
		 M439.5,72.9h0.6c2,0,4.3-0.4,4.3-3s-2.3-3-4.3-3h-0.6V72.9z"/>
	<path class="st0" d="M479.7,80.8h7.5v5.3h-13.7V62.2h6.2V80.8z"/>
</g>
</svg>
